<svg width="1000" height="482" viewBox="0 0 1000 482" fill="none" xmlns="http://www.w3.org/2000/svg">
<path d="M1000 481.609H80.46V79.3105H1000V481.609ZM105.46 456.609H975V104.311H105.46V456.609ZM960.27 69.4648H69.4648V443.028H39.7295V39.7295H960.27V69.4648ZM131.437 432.753H235.632V442.753H120.689V432.753H121.437V326.437H131.437V432.753ZM958.845 441.379H948.845V440.632H842.528V430.632H948.845V326.437H958.845V441.379ZM539.08 136.781C618.431 136.781 682.758 201.108 682.759 280.459C682.759 359.81 618.431 424.138 539.08 424.138C459.729 424.137 395.402 359.81 395.402 280.459C395.403 201.108 459.729 136.781 539.08 136.781ZM919.54 28.7354H28.7354V402.299H0V0H919.54V28.7354ZM530.216 220.898C519.018 222.005 509.61 225.456 501.993 231.25C498.152 234.18 495.06 237.696 492.716 241.797C490.437 245.833 489.298 250.489 489.298 255.762C489.298 260.97 490.47 265.365 492.813 268.945C495.157 272.461 498.803 275.684 503.751 278.613C508.699 281.543 517.521 284.212 530.216 286.621V326.172C517.781 324.284 506.257 319.336 495.646 311.328L486.368 326.953C489.168 329.167 492.293 331.185 495.743 333.008C506.681 338.867 518.172 342.187 530.216 342.969V360.352H545.157V342.48C557.397 340.918 567.423 337.109 575.235 331.055C584.024 324.284 588.419 315.56 588.419 304.883C588.419 299.219 587.149 294.564 584.61 290.918C582.071 287.207 578.262 283.919 573.185 281.055C568.171 278.19 558.829 275.391 545.157 272.656V237.793C555.704 239.811 565.535 243.555 574.649 249.023L581.388 233.203C570.711 226.367 558.634 222.266 545.157 220.898V207.324H530.216V220.898ZM545.157 289.648C552.839 291.276 558.504 293.164 562.149 295.312C564.298 296.614 565.991 298.145 567.228 299.902C568.464 301.66 569.083 303.939 569.083 306.738C569.083 309.538 568.399 312.109 567.032 314.453C563.321 320.898 556.03 324.805 545.157 326.172V289.648ZM530.216 269.727C523.445 268.294 518.334 266.471 514.884 264.258C512.931 263.086 511.401 261.686 510.294 260.059C509.187 258.431 508.634 256.347 508.634 253.809C508.634 251.27 509.22 249.023 510.392 247.07C513.712 241.667 520.32 238.379 530.216 237.207V269.727ZM959.77 130.465H959.022V236.781H949.022V130.465H844.827V120.465H959.77V130.465ZM131.614 119.138H237.931V129.138H131.614V233.333H121.614V118.391H131.614V119.138Z" fill="black"/>
</svg>
