<svg width="1000" height="482" viewBox="0 0 1000 482" fill="none" xmlns="http://www.w3.org/2000/svg">
<path d="M1000 481.609H80.46V79.3105H1000V481.609ZM109.942 444.247H109.195V454.247H224.138V444.247H119.942V337.932H109.942V444.247ZM960.34 442.126H854.023V452.126H960.34V452.873H970.34V337.931H960.34V442.126ZM959.77 68.9648H68.9648V442.528H40.2295V40.2295H959.77V68.9648ZM539.081 136.781C459.73 136.781 395.402 201.109 395.402 280.46C395.403 359.811 459.73 424.138 539.081 424.138C618.432 424.137 682.759 359.811 682.759 280.46C682.759 201.109 618.432 136.782 539.081 136.781ZM919.54 28.7354H28.7354V402.299H0V0H919.54V28.7354ZM545.157 220.898C558.634 222.266 570.711 226.367 581.388 233.203L574.649 249.023C565.535 243.555 555.704 239.811 545.157 237.793V272.656C558.829 275.391 568.171 278.19 573.185 281.055C578.262 283.919 582.071 287.207 584.61 290.918C587.149 294.564 588.419 299.219 588.419 304.883C588.419 315.56 584.024 324.284 575.235 331.055C567.423 337.109 557.397 340.918 545.157 342.48V360.352H530.216V342.969C518.172 342.187 506.681 338.867 495.743 333.008C492.293 331.185 489.168 329.167 486.368 326.953L495.646 311.328C506.257 319.336 517.781 324.284 530.216 326.172V286.621C517.521 284.212 508.699 281.543 503.751 278.613C498.803 275.684 495.157 272.461 492.813 268.945C490.47 265.365 489.298 260.97 489.298 255.762C489.298 250.488 490.437 245.833 492.716 241.797C495.06 237.695 498.152 234.18 501.993 231.25C509.61 225.456 519.018 222.005 530.216 220.898V207.324H545.157V220.898ZM545.157 326.172C556.03 324.805 563.321 320.898 567.032 314.453C568.399 312.109 569.083 309.538 569.083 306.738C569.083 303.939 568.464 301.66 567.228 299.902C565.991 298.145 564.298 296.614 562.149 295.312C558.504 293.164 552.839 291.276 545.157 289.648V326.172ZM530.216 237.207C520.32 238.379 513.712 241.667 510.392 247.07C509.22 249.023 508.634 251.27 508.634 253.809C508.634 256.347 509.187 258.431 510.294 260.059C511.401 261.686 512.931 263.086 514.884 264.258C518.334 266.471 523.445 268.294 530.216 269.727V237.207ZM110.12 225.288H120.12V121.093H226.437V111.093H120.12V110.346H110.12V225.288ZM856.322 118.972H960.518V225.287H970.518V118.972H971.265V108.972H856.322V118.972Z" fill="black"/>
</svg>
