<svg width="800" height="802" viewBox="0 0 800 802" fill="none" xmlns="http://www.w3.org/2000/svg">
<path d="M750 552C777.614 552 800 574.386 800 602V752C800 779.614 777.614 802 750 802H50C22.3858 802 4.02715e-07 779.614 0 752V602C0 574.386 22.3858 552 50 552C77.6142 552 100 574.386 100 602V652C100 679.614 122.386 702 150 702H650C677.614 702 700 679.614 700 652V602C700 574.386 722.386 552 750 552ZM404 0C431.614 0.00016493 454 22.3859 454 50V419.42L432.687 440.733C420.483 452.937 403.54 457.513 387.782 454.463C403.541 457.515 420.486 452.939 432.69 440.734L580.757 292.671C600.283 273.145 631.941 273.145 651.467 292.67L655.003 296.206C674.529 315.732 674.529 347.391 655.003 366.917L433.534 588.38C414.008 607.905 382.35 607.906 362.824 588.38L141.356 366.917C121.83 347.391 121.83 315.732 141.356 296.206L144.047 293.515C163.573 273.989 195.232 273.989 214.758 293.515L347 425.754V50C347 22.3858 369.386 0.000131752 397 0H404Z" fill="black"/>
</svg>
