<svg width="1000" height="914" viewBox="0 0 1000 914" fill="none" xmlns="http://www.w3.org/2000/svg">
<path d="M501.651 85.4563C615.655 -28.4855 800.493 -28.4855 914.497 85.4563C1028.5 199.398 1028.5 384.136 914.497 498.078L498.347 914L85.5027 501.379C-28.0554 387.882 -28.4992 204.143 84.1716 90.0969L85.5027 88.7581C199.507 -25.1835 384.343 -25.1835 498.347 88.7581L501.651 85.4563ZM879.151 120.822C784.671 26.393 631.477 26.393 536.997 120.822L533.694 124.123L498.347 159.45L463.002 124.123C368.522 29.6949 215.328 29.6949 120.848 124.123C61.4957 183.444 39.4339 265.918 54.6648 342.45L143.719 342.762L212.419 172.639L232.253 123.524L257.561 170.055L421.794 472.006L478.088 359.657L485.03 345.802L500.526 345.857L641.088 346.348L641 371.348L640.913 396.348L515.848 395.91L445.054 537.199L423.612 579.994L400.742 537.946L238.946 240.476L183.742 377.182L177.402 392.88L160.473 392.821L70.447 392.505C82.1897 419.179 98.9898 444.167 120.848 466.014L498.347 843.308L879.151 462.713C973.616 368.299 973.616 215.235 879.151 120.822Z" fill="black"/>
</svg>
