<!-- search: spin -->
<svg width="936" height="800" viewBox="0 0 936 800" fill="none" xmlns="http://www.w3.org/2000/svg">
<path d="M400 0C602.418 0 769.717 150.354 796.312 345.474L850.104 291.684C869.631 272.157 901.336 272.204 920.862 291.73C940.388 311.257 940.435 342.961 920.909 362.487L779.487 503.909C759.961 523.435 728.302 523.435 708.776 503.909L567.355 362.487C547.829 342.961 547.876 311.257 567.402 291.73C586.929 272.204 618.633 272.157 638.159 291.684L695.724 349.248C696.058 351.212 696.374 353.183 696.67 355.16C675.026 210.744 550.447 100 400 100C234.315 100 100 234.315 100 400C100 565.685 234.315 700 400 700H450C477.614 700 500 722.386 500 750C500 777.614 477.614 800 450 800H400C179.086 800 0 620.914 0 400C0 179.086 179.086 0 400 0ZM799.986 396.854C799.984 396.542 799.98 396.229 799.977 395.916C799.98 396.229 799.984 396.542 799.986 396.854ZM799.949 393.72C799.944 393.4 799.94 393.08 799.935 392.761C799.94 393.08 799.944 393.4 799.949 393.72ZM799.774 386.481C799.766 386.241 799.757 386.002 799.749 385.762C799.757 386.002 799.766 386.241 799.774 386.481ZM699.546 383.392C699.526 383.033 699.507 382.675 699.486 382.316C699.507 382.675 699.526 383.033 699.546 383.392ZM699.207 378.046C699.295 379.262 699.376 380.479 699.449 381.699C699.376 380.479 699.295 379.262 699.207 378.046ZM799.297 376.127C799.286 375.948 799.275 375.769 799.265 375.59C799.275 375.769 799.286 375.948 799.297 376.127ZM698.877 373.888C698.846 373.53 698.815 373.172 698.783 372.814C698.815 373.172 698.846 373.53 698.877 373.888ZM799.081 372.712C799.073 372.597 799.066 372.482 799.059 372.367C799.066 372.482 799.073 372.597 799.081 372.712ZM698.695 371.854C698.676 371.643 698.658 371.431 698.638 371.22L698.631 371.154C698.653 371.388 698.674 371.621 698.695 371.854ZM698.121 366.249C698.07 365.796 698.019 365.343 697.966 364.891C698.019 365.343 698.07 365.796 698.121 366.249ZM697.933 364.614C697.881 364.174 697.829 363.734 697.775 363.294C697.829 363.734 697.881 364.174 697.933 364.614ZM696.949 357.064C697.223 358.976 697.478 360.893 697.716 362.815C697.478 360.893 697.223 358.976 696.949 357.064Z" fill="black"/>
</svg>
