<!-- search: spin -->
<svg width="957" height="800" viewBox="0 0 957 800" fill="none" xmlns="http://www.w3.org/2000/svg">
<path d="M556.264 0C777.178 0 956.264 179.086 956.264 400C956.264 620.914 777.178 800 556.264 800V700C721.949 700 856.264 565.685 856.264 400C856.264 234.315 721.949 100 556.264 100C405.806 100 281.218 210.76 259.588 355.192C259.886 353.204 260.204 351.223 260.54 349.248L353.46 256.328L424.264 327.132L212.132 539.264L0 327.132L70.8037 256.328L159.95 345.474C186.545 150.354 353.845 0 556.264 0ZM156.286 395.912C156.283 396.226 156.279 396.54 156.276 396.854C156.279 396.54 156.283 396.226 156.286 395.912ZM156.328 392.761C156.322 393.081 156.318 393.401 156.313 393.721C156.318 393.401 156.322 393.081 156.328 392.761ZM156.514 385.762C156.505 386.002 156.497 386.241 156.489 386.481C156.497 386.241 156.505 386.002 156.514 385.762ZM256.775 382.322C256.858 380.894 256.953 379.469 257.056 378.046C256.953 379.469 256.858 380.894 256.775 382.322ZM156.998 375.59C156.987 375.769 156.976 375.948 156.966 376.127C156.976 375.948 156.987 375.769 156.998 375.59ZM257.477 372.839C257.623 371.21 257.783 369.586 257.955 367.965C257.783 369.586 257.623 371.21 257.477 372.839ZM157.204 372.367C157.196 372.482 157.189 372.597 157.182 372.712C157.189 372.597 157.196 372.482 157.204 372.367ZM258.293 364.926C258.603 362.265 258.947 359.614 259.326 356.975C258.947 359.614 258.603 362.265 258.293 364.926ZM258.097 366.658C258.049 367.093 258.001 367.529 257.955 367.965C258.001 367.529 258.049 367.093 258.097 366.658ZM259.536 355.542C259.465 356.019 259.395 356.497 259.326 356.975C259.395 356.497 259.465 356.019 259.536 355.542Z" fill="black"/>
</svg>
