<!-- search: spin -->
<svg width="957" height="800" viewBox="0 0 957 800" fill="none" xmlns="http://www.w3.org/2000/svg">
<path d="M400 0C602.418 0 769.717 150.354 796.312 345.474L885.46 256.328L956.264 327.132L744.132 539.264L532 327.132L602.804 256.328L695.724 349.248C696.06 351.223 696.377 353.205 696.675 355.192C675.045 210.761 550.458 100 400 100C234.315 100 100 234.315 100 400C100 565.685 234.315 700 400 700V800C179.086 800 0 620.914 0 400C0 179.086 179.086 0 400 0ZM799.986 396.854C799.984 396.54 799.98 396.226 799.977 395.912C799.98 396.226 799.984 396.54 799.986 396.854ZM799.949 393.721C799.944 393.401 799.94 393.081 799.935 392.761C799.94 393.081 799.944 393.401 799.949 393.721ZM799.774 386.481C799.766 386.241 799.757 386.002 799.749 385.762C799.757 386.002 799.766 386.241 799.774 386.481ZM699.448 381.683C699.375 380.468 699.295 379.256 699.207 378.046C699.295 379.256 699.375 380.468 699.448 381.683ZM799.297 376.127C799.286 375.948 799.275 375.769 799.265 375.59C799.275 375.769 799.286 375.948 799.297 376.127ZM698.489 369.719C698.576 370.582 698.658 371.446 698.737 372.312C698.658 371.446 698.576 370.582 698.489 369.719ZM799.081 372.712C799.073 372.597 799.066 372.482 799.059 372.367C799.066 372.482 799.073 372.597 799.081 372.712ZM696.949 357.064C697.227 359.005 697.486 360.952 697.727 362.904C697.486 360.952 697.227 359.005 696.949 357.064ZM699.546 383.392C699.526 383.033 699.507 382.675 699.486 382.316C699.507 382.675 699.526 383.033 699.546 383.392ZM698.874 373.85C698.844 373.506 698.815 373.163 698.784 372.82C698.815 373.163 698.844 373.506 698.874 373.85ZM698.12 366.245C698.07 365.8 698.02 365.356 697.968 364.912C698.02 365.356 698.07 365.8 698.12 366.245ZM697.904 364.377C697.862 364.015 697.819 363.654 697.775 363.293C697.819 363.654 697.862 364.015 697.904 364.377Z" fill="black"/>
</svg>
