<svg width="839" height="850" viewBox="0 0 839 850" fill="none" xmlns="http://www.w3.org/2000/svg">
<path d="M405.896 0C430.464 0 451.063 16.9697 456.624 39.8232C490.633 44.8445 522.374 60.664 546.974 85.2676C576.701 115 593.604 155.159 594.125 197.148L594.138 199.149V280.782C594.138 319.797 586.455 358.431 571.527 394.478C556.599 430.524 534.716 463.279 507.131 490.869V490.87C479.545 518.459 446.794 540.345 410.752 555.276C390.921 563.492 370.306 569.512 349.275 573.267V688.945C349.275 696.384 350.739 703.747 353.585 710.618C356.341 717.273 360.343 723.34 365.367 728.487L365.856 728.983L365.864 728.99C370.963 734.091 376.979 738.165 383.581 740.993L384.222 741.263L384.232 741.268C391.1 744.113 398.462 745.578 405.896 745.578H541.931C549.366 745.578 556.729 744.114 563.594 741.269L563.606 741.263C570.463 738.425 576.703 734.253 581.957 728.995L581.97 728.982C587.227 723.728 591.399 717.486 594.236 710.627L594.24 710.618L594.244 710.608C594.667 709.587 595.058 708.554 595.42 707.511C548.44 679.41 516.931 628.021 516.931 569.218C516.931 480.273 589.026 408.163 677.966 408.163C766.905 408.163 839 480.274 839 569.218C839 651.416 777.426 719.234 697.887 729.049C696.008 736.367 693.613 743.562 690.708 750.577L690.706 750.581C682.612 770.114 670.756 787.867 655.807 802.825L655.799 802.833C640.843 817.784 623.093 829.643 603.562 837.738L603.555 837.741C584.021 845.832 563.08 850 541.931 850H405.896C384.748 850 363.807 845.831 344.271 837.741L344.265 837.738C324.733 829.643 306.981 817.784 292.027 802.83L292.023 802.826C277.072 787.868 265.213 770.114 257.121 750.577V750.576C249.03 731.039 244.862 710.096 244.862 688.945V573.267C223.832 569.512 203.217 563.491 183.387 555.276C147.345 540.345 114.593 518.459 87.0078 490.87V490.869C59.4229 463.28 37.5392 430.524 22.6104 394.478C7.68215 358.431 0 319.797 0 280.782V199.149C3.8147e-05 177.999 4.16686 157.055 12.2588 137.516C20.3506 117.978 32.2101 100.223 47.1641 85.2676C62.1177 70.3117 79.8709 58.4499 99.4062 50.3564L101.242 49.6094C112.932 44.9345 125.106 41.6554 137.513 39.8232C143.073 16.9695 163.674 0.000154375 188.241 0C217.077 0 240.448 23.379 240.448 52.2109V133.844C240.448 162.675 217.078 186.055 188.241 186.055C164.126 186.055 143.834 169.704 137.835 147.488C131.573 150.302 125.867 154.237 121.001 159.104L121 159.104C115.74 164.365 111.568 170.608 108.724 177.476V177.477C105.879 184.345 104.414 191.71 104.414 199.149V280.782C104.414 306.087 109.398 331.145 119.08 354.522C128.762 377.9 142.953 399.141 160.843 417.033C178.733 434.925 199.97 449.119 223.343 458.802C246.717 468.485 271.77 473.47 297.069 473.47C322.368 473.47 347.421 468.485 370.795 458.802L372.979 457.881C394.765 448.54 414.641 435.257 431.607 418.7L433.295 417.033C451.184 399.141 465.376 377.899 475.058 354.522C484.74 331.144 489.725 306.086 489.725 280.782V199.149C489.725 184.13 483.758 169.725 473.139 159.104L473.138 159.104C468.229 154.194 462.512 150.28 456.301 147.489C450.302 169.705 430.011 186.055 405.896 186.055C377.06 186.055 353.69 162.675 353.689 133.844V52.2109C353.689 23.3789 377.06 8.7738e-05 405.896 0ZM677.966 433.163C602.837 433.163 541.931 494.077 541.931 569.218C541.931 624.945 575.433 672.837 623.394 693.865C622.844 702.905 620.815 711.797 617.338 720.184C613.241 730.088 607.222 739.09 599.643 746.665C592.068 754.246 583.068 760.265 573.165 764.363C563.264 768.467 552.649 770.578 541.931 770.578H405.896C395.178 770.578 384.564 768.467 374.662 764.363C364.759 760.265 355.762 754.246 348.184 746.665C340.604 739.09 334.589 730.088 330.487 720.184C326.386 710.279 324.275 699.666 324.275 688.945V552.892H269.862V688.945C269.862 706.812 273.383 724.505 280.219 741.011C287.055 757.517 297.074 772.516 309.705 785.152C322.336 797.784 337.333 807.803 353.837 814.644C370.342 821.479 388.033 825 405.896 825H541.931C559.795 825 577.485 821.479 593.988 814.644C610.492 807.803 625.489 797.784 638.124 785.152C650.753 772.516 660.771 757.517 667.61 741.011C672.355 729.555 675.496 717.523 676.976 705.256C677.307 705.261 677.634 705.272 677.966 705.272C753.095 705.272 814 644.358 814 569.218C814 494.077 753.095 433.163 677.966 433.163ZM677.966 487.585C723.042 487.585 759.586 524.133 759.586 569.218C759.586 614.301 723.042 650.85 677.966 650.851C632.889 650.851 596.345 614.301 596.345 569.218C596.345 524.133 632.889 487.585 677.966 487.585ZM677.966 512.585C646.7 512.585 621.345 537.937 621.345 569.218C621.345 600.497 646.7 625.851 677.966 625.851C709.231 625.85 734.586 600.497 734.586 569.218C734.586 538.181 709.626 512.982 678.697 512.59L677.966 512.585ZM405.896 25C390.871 25 378.689 37.1828 378.689 52.2109V133.844C378.69 148.872 390.871 161.055 405.896 161.055C420.922 161.055 433.103 148.872 433.104 133.844V117.517C454.75 117.517 475.511 126.118 490.817 141.428C506.124 156.736 514.725 177.5 514.725 199.149V280.782C514.725 309.369 509.094 337.678 498.155 364.089C487.217 390.499 471.184 414.496 450.974 434.71C430.763 454.924 406.77 470.959 380.363 481.898C353.956 492.838 325.652 498.47 297.069 498.47C268.486 498.47 240.181 492.838 213.774 481.898C187.368 470.959 163.375 454.923 143.164 434.71C122.953 414.496 106.921 390.499 95.9824 364.089C85.0442 337.678 79.4141 309.369 79.4141 280.782V199.149C79.4141 188.429 81.5243 177.814 85.626 167.91C89.7277 158.006 95.7421 149.008 103.321 141.428C110.9 133.847 119.897 127.832 129.8 123.729C139.702 119.627 150.316 117.517 161.034 117.517V133.844C161.034 148.872 173.216 161.055 188.241 161.055C203.267 161.055 215.448 148.872 215.448 133.844V52.2109C215.448 37.1828 203.267 25 188.241 25C173.215 25.0001 161.034 37.1829 161.034 52.2109V63.0957C143.17 63.0957 125.479 66.6158 108.975 73.4531C92.4709 80.2906 77.4742 90.3109 64.8428 102.944C52.2114 115.577 42.1927 130.576 35.3564 147.082C28.5201 163.589 25 181.283 25 199.149V280.782C25 316.515 32.0359 351.899 45.708 384.912C59.3808 417.926 79.4228 447.925 104.687 473.193C129.951 498.461 159.946 518.505 192.955 532.18C225.964 545.854 261.342 552.892 297.069 552.892C332.797 552.892 368.175 545.854 401.184 532.18C434.192 518.505 464.188 498.461 489.452 473.193C514.716 447.925 534.757 417.926 548.43 384.912C562.102 351.899 569.138 316.515 569.138 280.782V199.149C569.138 163.066 554.806 128.459 529.295 102.944C503.784 77.429 469.182 63.0957 433.104 63.0957V52.2109C433.104 37.1828 420.922 25 405.896 25Z" fill="black"/>
</svg>
