<svg viewBox="0 0 1000 587" xmlns="http://www.w3.org/2000/svg">
<path d="M308.333 253.334C322.14 253.334 333.333 264.527 333.333 278.334V392.299C333.333 405.61 343.767 416.598 357.065 417.187C450.897 421.343 540.064 421.444 633.853 417.496L642.943 417.101C656.238 416.506 666.667 405.52 666.667 392.212V278.334C666.667 264.743 677.513 253.685 691.021 253.342L691.667 253.334H975C988.807 253.334 1000 264.527 1000 278.334V531.535C1000 544.329 990.214 555.075 977.487 556.39C606.85 594.682 397.061 598.375 30.9385 557.555L22.2607 556.583C9.84028 555.183 0.302343 544.794 0.00683594 532.358L0 531.764V278.334C0 264.743 10.8457 253.685 24.3545 253.342L25 253.334H308.333ZM35 522.791C395.243 562.947 602.077 559.694 965 522.487V288.334H701.667V392.212C701.667 424.097 676.649 450.628 644.508 452.066C546.343 456.457 453.417 456.489 355.517 452.153C323.363 450.729 298.333 424.191 298.333 392.299V288.334H35V522.791ZM363.429 99.0142C452.706 73.6635 547.294 73.6635 636.571 99.0142C646.533 101.843 651.915 112.457 648.715 122.305C645.515 132.153 634.945 137.504 624.975 134.706C543.242 111.766 456.758 111.766 375.025 134.706C365.056 137.504 354.485 132.153 351.285 122.305C348.085 112.457 353.468 101.843 363.429 99.0142ZM495.637 0.019043C568.282 -0.614919 640.116 14.5902 706.165 44.4839C715.599 48.7538 719.353 60.0467 714.732 69.314C710.112 78.5808 698.868 82.3107 689.421 78.0698C628.679 50.8001 562.691 36.9367 495.964 37.519C429.237 38.1014 363.501 53.1143 303.244 81.4399C293.873 85.8449 282.565 82.3113 277.783 73.1265C273.002 63.9414 276.558 52.5848 285.916 48.1509C351.433 17.1091 422.991 0.653012 495.637 0.019043Z"/>
</svg>
