<svg viewBox="0 0 1000 584" xmlns="http://www.w3.org/2000/svg">
<path d="M308.333 250C322.14 250 333.333 261.194 333.333 275V388.966C333.333 402.277 343.767 413.265 357.065 413.854C453.924 418.144 545.812 418.112 642.943 413.767C656.238 413.172 666.667 402.186 666.667 388.878V275C666.667 261.194 677.86 250 691.667 250H975C988.807 250 1000 261.194 1000 275V528.202C1000 540.996 990.215 551.742 977.488 553.057C603.933 591.651 393.767 595.097 22.2607 553.249C9.64295 551.827 0.000247213 541.128 0 528.43V275C0.000173011 261.194 11.193 250 25 250H308.333ZM363.429 95.6802C452.706 70.3296 547.294 70.3296 636.571 95.6802C646.532 98.5089 651.914 109.123 648.715 118.971C645.515 128.819 634.945 134.171 624.975 131.373C543.242 108.433 456.758 108.433 375.025 131.373C365.055 134.171 354.485 128.819 351.285 118.971C348.086 109.123 353.468 98.5089 363.429 95.6802ZM495.637 0.019043C568.282 -0.614919 640.116 14.5902 706.165 44.4839C715.599 48.7538 719.353 60.0467 714.732 69.314C710.112 78.5806 698.868 82.3106 689.421 78.0698C628.679 50.8001 562.691 36.9357 495.964 37.5181C429.237 38.1004 363.501 53.1143 303.244 81.4399C293.873 85.8449 282.565 82.3113 277.783 73.1265C273.002 63.9414 276.558 52.5848 285.916 48.1509C351.433 17.1091 422.991 0.653012 495.637 0.019043Z"/>
</svg>
