<!-- search: close, escape, leave, x -->
<svg viewBox="0 0 759 759" xmlns="http://www.w3.org/2000/svg">
<path d="M610.601 14.6446C630.127 -4.88139 661.784 -4.88133 681.311 14.6446L743.934 77.2676C763.46 96.7938 763.46 128.451 743.934 147.978L512.622 379.289L743.934 610.601C763.46 630.127 763.46 661.785 743.934 681.312L681.312 743.934C661.785 763.46 630.127 763.46 610.601 743.934L379.289 512.622L147.978 743.934C128.451 763.46 96.7938 763.46 77.2676 743.934L14.6445 681.312C-4.88166 661.785 -4.88163 630.127 14.6445 610.601L245.956 379.289L14.6445 147.978C-4.88144 128.451 -4.88142 96.7938 14.6445 77.2676L77.2666 14.6446C96.7928 -4.88157 128.451 -4.88147 147.978 14.6446L379.289 245.956L610.601 14.6446Z"/>
</svg>