<!-- search: open -->
<svg viewBox="0 0 797 796" xmlns="http://www.w3.org/2000/svg">
<path d="M250 195.996C277.614 195.996 300 218.382 300 245.996C300 273.61 277.614 295.996 250 295.996H150C122.386 295.996 100 318.382 100 345.996V645.996C100 673.61 122.386 695.996 150 695.996H450C477.614 695.996 500 673.61 500 645.996V545.996C500 518.382 522.386 495.996 550 495.996C577.614 495.996 600 518.382 600 545.996V745.996C600 773.61 577.614 795.996 550 795.996H50C22.3858 795.996 8.0543e-07 773.61 0 745.996V245.996C0 218.382 22.3858 195.996 50 195.996H250ZM747 0C774.614 0 797 22.3858 797 50V350C797 377.614 774.614 400 747 400C719.386 400 697 377.614 697 350V170.602L374.133 493.469C354.607 512.995 322.948 512.995 303.422 493.469L298.355 488.401C278.829 468.875 278.829 437.217 298.355 417.69L616.046 100H447C419.386 100 397 77.6142 397 50C397 22.3858 419.386 0 447 0H747Z"/>
</svg>
