<svg viewBox="0 0 1000 914" xmlns="http://www.w3.org/2000/svg">
<path d="M501.652 85.4564C615.656 -28.4853 800.494 -28.4856 914.498 85.4564C1028.5 199.398 1028.5 384.136 914.498 498.078L498.348 914L85.5027 501.378C53.6905 469.583 30.756 432.275 16.698 392.532L136.555 392.932L153.172 392.988L159.656 377.689L218.774 238.23L390.273 538.601L412.883 578.201L434.109 537.843L508.705 396.019L641.19 396.46L641.273 371.461L641.356 346.461L493.718 345.969L478.562 345.918L471.509 359.331L411.084 474.21L237.168 169.605L212.14 125.77L192.44 172.243L120.106 342.876L3.85913 342.49C-10.8237 252.925 16.3912 157.833 85.5027 88.7581C199.507 -25.1839 384.344 -25.184 498.348 88.7581L501.652 85.4564Z"/>
</svg>
