<svg viewBox="0 0 1000 688" xmlns="http://www.w3.org/2000/svg">
<path d="M158.646 31.5467C149.659 -26.8284 217.299 7.15579 271.52 42.617C326.484 18.4816 389.376 3.70536 456.535 1.30453C660.122 -5.97326 832.72 102.978 866.595 251.67C867.318 251.224 868.044 250.799 868.775 250.396C889.83 238.806 908.644 247.634 921.736 255.402C929.333 259.91 933.68 263.102 939.684 266.367C945.104 269.314 948.667 270.353 951.268 270.306C953.17 270.273 955.996 269.657 960.099 265.275C964.529 260.543 969.874 251.955 975.836 237.047L987.441 241.688L999.048 246.33C992.585 262.489 985.844 274.355 978.35 282.361C970.528 290.717 961.59 295.127 951.714 295.303C942.537 295.466 934.307 291.9 927.741 288.33C921.761 285.078 913.929 279.839 908.98 276.902C896.982 269.783 889.23 267.674 880.832 272.297C878.071 273.817 874.879 276.247 871.298 280.047C871.871 285.516 872.262 291.03 872.461 296.585C875.369 377.935 837.025 453.426 771.963 511.094L734.351 687.09H626.437L586.683 605.706C552.442 614.257 516.228 619.468 478.681 620.81C448.535 621.888 419.068 620.415 390.631 616.644L356.22 687.09H248.306L221.323 560.839C181.054 537.794 146.709 508.982 120.375 475.886L18.9579 437.646C11.9089 417.916 6.5646 396.479 3.35148 373.857L3.13175 372.278C0.353047 352.042 -0.528847 332.249 0.296792 313.343C26.3903 306.783 46.5427 298.381 64.6112 285.849C72.8404 222.601 105.917 164.36 156.41 117.243C161.318 91.2497 163.315 61.8712 158.646 31.5467ZM483.346 246.518C456.327 249.014 434.143 259.177 416.796 277.007C399.052 295.087 389.86 317.861 389.22 345.327C388.533 374.746 396.248 398.566 412.364 416.785C428.226 434.738 450.318 445.217 478.641 448.223L477.375 502.504L507.249 503.201L508.524 448.528C532.664 446.617 552.976 441.295 569.46 432.562L563.082 404.476C547.809 411.544 529.864 415.878 509.248 417.481L512.506 277.872C530.554 280.247 545.749 284.899 558.091 291.829L567.769 262.164C553.502 254.017 535.322 248.903 513.229 246.825L514.387 197.23L484.512 196.532L483.346 246.518ZM479.396 415.808C470.972 414.049 463.424 411.008 456.752 406.684C435.838 393.172 425.711 372.227 426.373 343.849C426.798 325.626 432.035 310.509 442.083 298.501C452.134 286.362 465.652 279.188 482.635 276.979L479.396 415.808ZM215.343 182.469C198.766 181.165 184.271 193.546 182.967 210.123C181.663 226.7 194.044 241.197 210.621 242.501C227.198 243.805 241.694 231.422 242.998 214.845C244.302 198.268 231.92 183.773 215.343 182.469ZM531.398 74.8104C477.968 62.1361 421.287 62.5692 368.149 76.0565L376.552 99.035C424.387 86.8936 475.411 86.5053 523.51 97.9149L531.398 74.8104Z"/>
</svg>
