<svg viewBox="0 0 800 800" xmlns="http://www.w3.org/2000/svg">
<path d="M400 0C515.718 2.06162e-06 609.523 93.8067 609.523 209.523C609.523 289.036 565.219 358.177 499.962 393.676C518.023 398.331 535.783 404.217 553.09 411.383C601.615 431.486 645.707 460.96 682.85 498.103C719.992 535.245 749.466 579.338 769.569 627.863C789.668 676.396 800 728.423 800 780.952V800H0V780.952C2.97349e-05 728.423 10.3299 676.396 30.4316 627.863C50.5334 579.338 80.0083 535.245 117.15 498.103C154.292 460.96 198.384 431.486 246.912 411.383C264.206 404.221 281.953 398.331 300 393.676C234.76 358.173 190.477 289.024 190.477 209.523C190.477 93.8067 284.283 0 400 0ZM400 419.048C352.474 419.048 305.404 428.427 261.496 446.613C217.594 464.8 177.687 491.436 144.085 525.036C110.479 558.644 83.8124 598.541 65.625 642.449C49.8715 680.48 40.7782 720.887 38.6162 761.904H761.383C759.223 720.887 750.129 680.48 734.373 642.449C716.186 598.541 689.52 558.644 655.916 525.036C622.308 491.432 582.411 464.766 538.503 446.579C494.594 428.389 447.528 419.048 400 419.048ZM400 38.0957C305.323 38.0957 228.571 114.846 228.571 209.523C228.571 304.201 305.323 380.952 400 380.952C494.678 380.952 571.429 304.201 571.429 209.523C571.429 114.846 494.678 38.0957 400 38.0957Z"/>
</svg>
