<!-- search: spin -->
<svg viewBox="0 0 936 800" xmlns="http://www.w3.org/2000/svg">
<path d="M535.53 0C756.444 0 935.53 179.086 935.53 400C935.53 620.914 756.444 800 535.53 800H485.53C457.916 800 435.53 777.614 435.53 750C435.53 722.386 457.916 700 485.53 700H535.53C701.216 700 835.53 565.685 835.53 400C835.53 234.315 701.216 100 535.53 100C385.083 100 260.504 210.744 238.86 355.16C239.157 353.183 239.472 351.212 239.807 349.248L297.371 291.684C316.897 272.158 348.602 272.204 368.128 291.73C387.654 311.257 387.701 342.961 368.175 362.487L226.754 503.909C207.228 523.435 175.569 523.435 156.043 503.909L14.621 362.487C-4.90491 342.961 -4.85802 311.257 14.6678 291.73C34.1941 272.204 65.8995 272.157 85.4257 291.684L139.217 345.474C165.812 150.354 333.112 0 535.53 0ZM135.553 395.916C135.549 396.229 135.545 396.542 135.543 396.854C135.545 396.542 135.549 396.229 135.553 395.916ZM135.595 392.761C135.589 393.08 135.585 393.4 135.58 393.72C135.585 393.4 135.589 393.08 135.595 392.761ZM135.781 385.728C135.772 385.979 135.764 386.23 135.756 386.481C135.764 386.23 135.772 385.979 135.781 385.728ZM135.906 382.52C135.897 382.742 135.887 382.965 135.878 383.188C135.887 382.965 135.897 382.742 135.906 382.52ZM236.322 378.046C236.219 379.469 236.125 380.894 236.042 382.322C236.125 380.894 236.219 379.469 236.322 378.046ZM136.265 375.59C136.254 375.769 136.243 375.948 136.232 376.127C136.243 375.948 136.254 375.769 136.265 375.59ZM236.892 371.22C236.841 371.756 236.792 372.293 236.744 372.83C236.842 371.743 236.945 370.657 237.055 369.573L236.892 371.22ZM237.146 368.678C237.117 368.962 237.087 369.247 237.058 369.532C237.087 369.247 237.117 368.962 237.146 368.678ZM238.593 356.975C238.215 359.606 237.871 362.248 237.562 364.9C237.872 362.248 238.215 359.606 238.593 356.975ZM238.803 355.542C238.732 356.019 238.661 356.497 238.593 356.975C238.661 356.497 238.732 356.019 238.803 355.542Z"/>
</svg>
