<!-- search: magnify, glass, find -->
<svg viewBox="0 0 709 706" xmlns="http://www.w3.org/2000/svg">
<path d="M300 0C465.685 0 600 134.315 600 300C600 364.019 579.947 423.355 545.779 472.068L708.487 634.776L637.776 705.487L475.572 543.283C426.212 578.967 365.563 600 300 600C134.315 600 0 465.685 0 300C0 134.315 134.315 0 300 0ZM484.234 536.779C484.327 536.707 484.42 536.635 484.513 536.562C484.42 536.635 484.327 536.707 484.234 536.779ZM494.025 528.815C494.128 528.729 494.23 528.642 494.332 528.555C494.23 528.642 494.128 528.729 494.025 528.815ZM495.177 527.834C495.314 527.716 495.451 527.598 495.588 527.479C495.451 527.598 495.314 527.716 495.177 527.834ZM501.051 522.663C501.138 522.584 501.225 522.505 501.312 522.427C501.225 522.505 501.138 522.584 501.051 522.663ZM502.196 521.623C502.303 521.525 502.41 521.427 502.517 521.329C502.41 521.427 502.303 521.525 502.196 521.623ZM503.417 520.502C503.485 520.439 503.552 520.377 503.62 520.314C503.552 520.377 503.485 520.439 503.417 520.502ZM512.469 511.792C512.544 511.717 512.618 511.641 512.693 511.565C512.618 511.641 512.544 511.717 512.469 511.792ZM517.86 506.242C517.93 506.168 518.001 506.095 518.07 506.021C518.001 506.095 517.93 506.168 517.86 506.242ZM518.909 505.13C519.005 505.027 519.101 504.925 519.197 504.822C519.101 504.925 519.005 505.027 518.909 505.13ZM520.007 503.952C520.141 503.807 520.275 503.663 520.409 503.518C520.275 503.663 520.141 503.807 520.007 503.952ZM521.067 502.804C521.211 502.647 521.354 502.489 521.498 502.332C521.354 502.489 521.211 502.647 521.067 502.804ZM300 100C189.543 100 100 189.543 100 300C100 410.457 189.543 500 300 500C410.457 500 500 410.457 500 300C500 189.543 410.457 100 300 100ZM526.176 497.093C526.301 496.949 526.427 496.805 526.553 496.661C526.427 496.805 526.301 496.949 526.176 497.093ZM527.278 495.822C527.396 495.686 527.513 495.549 527.631 495.412C527.513 495.549 527.396 495.686 527.278 495.822ZM533.239 488.691C533.356 488.548 533.472 488.404 533.588 488.261C533.472 488.404 533.356 488.548 533.239 488.691ZM534.164 487.543C534.315 487.355 534.466 487.167 534.616 486.979C534.466 487.167 534.315 487.355 534.164 487.543ZM536.287 484.865C536.439 484.671 536.591 484.477 536.742 484.283C536.591 484.477 536.439 484.671 536.287 484.865ZM537.313 483.548C537.411 483.422 537.508 483.297 537.605 483.171C537.508 483.297 537.411 483.422 537.313 483.548ZM541.933 477.426C542.045 477.273 542.156 477.119 542.269 476.966C542.156 477.119 542.045 477.273 541.933 477.426ZM542.897 476.104C542.989 475.977 543.081 475.851 543.173 475.725C543.081 475.851 542.989 475.977 542.897 476.104ZM543.916 474.694C544.022 474.547 544.127 474.399 544.232 474.251C544.127 474.399 544.022 474.547 543.916 474.694ZM544.789 473.47C544.904 473.307 545.019 473.145 545.134 472.982C545.019 473.145 544.904 473.307 544.789 473.47Z"/>
</svg>
