<!-- search: point, go -->
<svg viewBox="0 0 1008 813" xmlns="http://www.w3.org/2000/svg">
<path d="M772.259 364.801L534.576 127.111C511.146 103.68 511.146 65.6911 534.576 42.2598L559.261 17.5742C582.692 -5.85807 620.684 -5.85808 644.115 17.5742L990.32 363.79C1013.75 387.221 1013.75 425.21 990.32 448.642L644.114 794.858C620.683 818.29 582.692 818.29 559.261 794.858L535.82 771.417C512.39 747.986 512.39 709.997 535.82 686.565L757.436 464.943L740.157 482.222H50C22.3858 482.222 0 459.836 0 432.222V374.114C0 346.5 22.3858 324.114 50 324.114H731.573L772.259 364.801Z"/>
</svg>
